<svg xmlns="http://www.w3.org/2000/svg" width="229" height="36" viewBox="0 0 229 36" version="1.1">
	<path d="M 11 8.067 C 11 15.680, 11.113 16.099, 13 15.500 C 14.100 15.151, 15 15.237, 15 15.692 C 15 16.147, 14.100 17.081, 13 17.768 C 11.744 18.552, 11 20.100, 11 21.927 C 11 25.846, 10.075 28, 8.393 28 C 7.463 28, 7 26.816, 7 24.437 C 7 21.019, 6.867 20.886, 3.750 21.187 C 0.589 21.491, 0.506 21.620, 0.703 25.885 C 1.066 33.737, 6.954 37.144, 13.928 33.537 C 15.485 32.732, 17.037 31.346, 17.379 30.455 C 17.720 29.565, 18 22.348, 18 14.418 L 18 0 14.500 0 L 11 0 11 8.067 M 37.079 17.500 L 37.060 35 41.030 35 L 45 35 45 27.500 C 45 20.167, 45.056 20, 47.500 20 C 49.590 20, 50 19.526, 50 17.111 C 50 14.582, 49.548 14.138, 46.370 13.542 C 43.671 13.035, 43.029 12.571, 43.870 11.730 C 44.491 11.109, 45 9.565, 45 8.300 C 45 6.338, 45.514 6, 48.500 6 C 51.722 6, 52 5.762, 52 3 L 52 0 44.549 -0 L 37.098 -0 37.079 17.500 M 55.079 17.500 L 55.060 35 59.030 35 L 63 35 63 27.500 C 63 20.167, 63.056 20, 65.500 20 C 67.590 20, 68 19.526, 68 17.111 C 68 14.582, 67.548 14.138, 64.370 13.542 C 61.671 13.035, 61.029 12.571, 61.870 11.730 C 62.491 11.109, 63 9.565, 63 8.300 C 63 6.338, 63.514 6, 66.500 6 C 69.722 6, 70 5.762, 70 3 L 70 0 62.549 -0 L 55.098 -0 55.079 17.500 M 78.595 2.250 C 77.797 3.488, 76.127 9.597, 74.885 15.826 C 72.946 25.547, 72.830 27.280, 74.063 28.060 C 75.060 28.691, 75.117 28.974, 74.250 28.985 C 72.240 29.009, 72.790 33.817, 74.934 34.965 C 75.998 35.534, 80.498 36, 84.934 36 C 95.938 36, 96.987 34.946, 96.845 24.025 L 96.741 16 90.871 16 L 85 16 85 19.613 C 85 23.060, 85.139 23.207, 88 22.787 C 89.650 22.545, 91 22.718, 91 23.173 C 91 23.628, 90.602 24, 90.117 24 C 89.631 24, 88.998 24.900, 88.710 26 C 88.190 27.989, 84.918 28.673, 81.747 27.456 C 80.306 26.903, 80.498 25.513, 83.811 12.500 C 84.754 8.797, 88.324 8.262, 88.820 11.750 C 89.090 13.653, 89.753 14, 93.124 14 L 97.110 14 96.805 9.250 L 96.500 4.500 90.500 2.309 C 82.762 -0.516, 80.386 -0.528, 78.595 2.250 M 102 2 C 100.359 3.641, 100 5.333, 100 11.427 C 100 17.659, 100.281 18.927, 101.750 19.311 C 103.417 19.746, 103.417 19.774, 101.750 19.884 C 100.291 19.981, 100 20.997, 100 26 C 100 33.999, 101.885 36, 109.418 36 C 116.217 36, 117.735 35.412, 119.437 32.122 C 121.465 28.201, 121.538 7.470, 119.534 4.412 C 116.694 0.077, 105.468 -1.468, 102 2 M 134 8.067 C 134 15.680, 134.113 16.099, 136 15.500 C 137.100 15.151, 138 15.237, 138 15.692 C 138 16.147, 137.100 17.081, 136 17.768 C 134.744 18.552, 134 20.100, 134 21.927 C 134 25.846, 133.075 28, 131.393 28 C 130.463 28, 130 26.816, 130 24.437 C 130 21.019, 129.867 20.886, 126.750 21.187 C 123.589 21.491, 123.506 21.620, 123.703 25.885 C 124.066 33.737, 129.954 37.144, 136.928 33.537 C 138.485 32.732, 140.037 31.346, 140.379 30.455 C 140.720 29.565, 141 22.348, 141 14.418 L 141 0 137.500 0 L 134 0 134 8.067 M 145.343 0.694 C 143.270 1.098, 143.171 1.691, 142.826 15.807 C 142.346 35.484, 142.226 35, 147.617 35 L 152 35 152 25.073 C 152 16.460, 151.768 15.086, 150.250 14.689 C 148.583 14.254, 148.583 14.226, 150.250 14.116 C 151.739 14.017, 152 12.956, 152 7 C 152 -0.599, 151.994 -0.605, 145.343 0.694 M 164.206 1.048 C 160.534 2.521, 159 7.770, 159 18.857 C 159 31.146, 160.091 33.014, 167.697 33.745 C 174.387 34.388, 177 32.072, 177 25.500 C 177 21.024, 176.981 21, 173.500 21 C 170.083 21, 170 21.095, 170 25 C 170 27.889, 169.583 29, 168.500 29 C 167.365 29, 167 27.772, 167 23.950 C 167 21.173, 166.280 17.507, 165.399 15.805 C 163.931 12.966, 163.931 12.759, 165.399 13.323 C 166.701 13.823, 167 13.197, 167 9.969 C 167 7.108, 167.419 6, 168.500 6 C 169.548 6, 170 7.056, 170 9.500 C 170 12.833, 170.167 13, 173.500 13 C 176.507 13, 177 12.669, 177 10.649 C 177 6.935, 174.959 2.048, 172.961 0.979 C 170.732 -0.214, 167.281 -0.187, 164.206 1.048 M 182 2 C 180.359 3.641, 180 5.333, 180 11.427 C 180 17.659, 180.281 18.927, 181.750 19.311 C 183.417 19.746, 183.417 19.774, 181.750 19.884 C 180.291 19.981, 180 20.997, 180 26 C 180 33.999, 181.885 36, 189.418 36 C 196.217 36, 197.735 35.412, 199.437 32.122 C 201.465 28.201, 201.538 7.470, 199.534 4.412 C 196.694 0.077, 185.468 -1.468, 182 2 M 204 17.674 L 204 35.349 206.314 33.174 C 208.690 30.943, 211.358 30.042, 209.200 32.200 C 207.567 33.833, 207.692 35, 209.500 35 C 210.735 35, 211.014 33.104, 211.079 24.250 C 211.159 13.292, 211.352 12.605, 212.469 19.278 C 212.816 21.356, 213.528 22.792, 214.051 22.469 C 214.573 22.146, 215 22.809, 215 23.941 C 215 25.073, 214.632 26, 214.183 26 C 212.604 26, 214.435 34.461, 216.082 34.778 C 217.349 35.021, 217.863 33.535, 218.670 27.291 C 219.223 23.006, 219.337 19.272, 218.923 18.994 C 218.509 18.715, 218.807 17.617, 219.585 16.553 C 220.839 14.838, 221 15.778, 221 24.809 L 221 35 225 35 L 229 35 229 23.906 C 229 13.354, 228.894 12.785, 226.824 12.244 L 224.647 11.675 226.824 10.869 C 228.664 10.189, 229 9.287, 229 5.032 L 229 0 224.180 0 L 219.360 0 218.063 7.987 C 217.350 12.380, 216.400 15.747, 215.953 15.471 C 215.506 15.195, 214.597 11.601, 213.933 7.484 L 212.726 0 208.363 0 L 204 0 204 17.674 M 20 4.566 C 20 6.527, 20.451 8.975, 21.003 10.005 C 21.673 11.257, 21.673 12.084, 21.003 12.498 C 20.431 12.852, 20 17.846, 20 24.126 L 20 35.133 27 34.848 C 33.920 34.565, 34 34.530, 34 31.781 C 34 29.358, 33.614 29, 31 29 C 28.067 29, 28 28.889, 28 24 C 28 19.333, 28.167 19, 30.500 19 C 32.500 19, 33 18.500, 33 16.500 C 33 14.500, 32.500 14, 30.500 14 C 28.310 14, 28 13.567, 28 10.500 C 28 7.278, 28.238 7, 31 7 C 33.667 7, 34 6.667, 34 4 L 34 1 27 1 L 20 1 20 4.566 M 109 17.917 C 109 24.435, 109.290 26, 110.500 26 C 111.433 26, 112 25.056, 112 23.500 C 112 22.125, 112.563 20.993, 113.250 20.985 C 114.189 20.973, 114.206 20.783, 113.319 20.218 C 112.669 19.805, 111.994 17.485, 111.819 15.061 C 111.644 12.638, 110.938 10.470, 110.250 10.244 C 109.319 9.938, 109 11.897, 109 17.917 M 189 17.917 C 189 24.435, 189.290 26, 190.500 26 C 191.433 26, 192 25.056, 192 23.500 C 192 22.125, 192.563 20.993, 193.250 20.985 C 194.189 20.973, 194.206 20.783, 193.319 20.218 C 192.669 19.805, 191.994 17.485, 191.819 15.061 C 191.644 12.638, 190.938 10.470, 190.250 10.244 C 189.319 9.938, 189 11.897, 189 17.917 M 154 34.500 C 154 35.325, 154.675 36, 155.500 36 C 156.325 36, 157 35.325, 157 34.500 C 157 33.675, 156.325 33, 155.500 33 C 154.675 33, 154 33.675, 154 34.500" stroke="none" fill="#000000" fill-rule="evenodd"/>
</svg>